<?xml version="1.0" encoding="UTF-8"?><svg id="Calque_2" xmlns="http://www.w3.org/2000/svg" viewBox="0 0 90.71 90.71"><defs><style>.cls-1{fill:#03979d;}.cls-2{fill:#fff;}</style></defs><g id="Calque_1-2"><g><g><path class="cls-1" d="M82.02,52.47c-1.65,.34-3.3,.67-4.95,1.01-.52,.11-1.37,.27-2,.4-.03,0-.06,0-.09,0-.09,.01-.18,0-.26,.01-.03,0-.06-.01-.09-.02-.04-.02-.08-.04-.12-.07-.03-.03-.06-.06-.09-.09,0-.01-.02-.03-.03-.04,0-.02-.01-.04-.02-.06,0-.06,0-.12-.01-.19,0-.03,0-.06,0-.09,.04-.18,.07-.36,.11-.54,.42-2.05,.84-4.1,1.24-6.15,.07-.37,.2-.66,.48-.93,4.27-4.25,8.53-8.52,12.78-12.78C83.57,13.92,66.09,0,45.35,0,20.31,0,0,20.31,0,45.35s20.31,45.35,45.35,45.35,45.35-20.31,45.35-45.35c0-.47-.02-.93-.04-1.39-2.78,2.78-5.57,5.57-8.35,8.35-.08,.08-.19,.14-.3,.16Z"/><path class="cls-1" d="M81.21,50.05c-.32,.02-.65,.02-.98,.05-.16,.01-.22-.04-.21-.21,.03-.5,.05-1,.07-1.5,.01-.26,0-.26-.26-.24-.49,.02-.98,.04-1.47,.07-.15,0-.21-.04-.2-.19,.02-.23,.02-.46,.03-.69,.02-.53,.02-.53-.49-.63-.4-.08-.81-.14-1.24-.21-.12,.59-.23,1.14-.35,1.69-.22,1.08-.44,2.15-.65,3.23-.02,.1,.01,.24,.08,.31,.33,.35,.67,.68,1.01,1.01,.06,.05,.17,.09,.25,.08,1.53-.31,3.06-.62,4.59-.93,.12-.03,.25-.06,.38-.09-.09-.52-.19-1.01-.25-1.5-.03-.21-.11-.25-.29-.23Z"/></g><g><path class="cls-2" d="M76.19,45.71c-.27,.27-.4,.57-.48,.93-.41,2.05-.83,4.1-1.24,6.15-.04,.18-.07,.36-.11,.54,0,.03,0,.06,0,.09,0,.06,0,.12,.01,.19,0,.02,.01,.04,.02,.06,0,.01,.02,.03,.03,.04,.03,.03,.06,.06,.09,.09,.04,.03,.08,.05,.12,.07,.03,0,.06,.02,.09,.02,.09,0,.18,0,.26-.01,.03,0,.06,0,.09,0,.64-.13,1.48-.3,2-.4,1.65-.33,3.3-.67,4.95-1.01,.11-.02,.22-.08,.3-.16,2.79-2.78,5.57-5.57,8.35-8.35-.12-3.82-.7-7.51-1.7-11.03-4.26,4.26-8.52,8.52-12.78,12.78Zm5.18,6.17c-1.53,.31-3.06,.63-4.59,.93-.08,.02-.19-.02-.25-.08-.35-.33-.69-.67-1.01-1.01-.06-.07-.1-.21-.08-.31,.21-1.08,.43-2.15,.65-3.23,.11-.55,.23-1.1,.35-1.69,.43,.07,.84,.14,1.24,.21,.51,.1,.51,.1,.49,.63,0,.23,0,.46-.03,.69-.01,.15,.05,.2,.2,.19,.49-.03,.98-.04,1.47-.07,.27-.01,.27-.02,.26,.24-.02,.5-.04,1-.07,1.5,0,.16,.04,.22,.21,.21,.32-.02,.65-.02,.98-.05,.18-.01,.27,.03,.29,.23,.06,.49,.16,.98,.25,1.5-.14,.03-.26,.07-.38,.09Z"/><g><path class="cls-2" d="M17.43,62.3c-.26,.68-.42,1.02-.76,1.68-.26,.53-.44,1.38-1.04,1.38-.52-.05-.83-.85-1.03-1.46-.36-.69-.95-2.06-1.22-2.74-.04,.44-.08,1.67-.18,2.15-.1,.47-.18,.95-.27,1.45-.37,1.89-.27,2.4-1.23,2.31-.64-.05-.64-.69-.52-1.45,.29-1.73,.55-3.26,.83-5.04,.04-.76,.3-1.95,.63-2.42,.21-.23,.74-.33,1.08-.12,.21,.13,.44,.81,.57,1.13,.33,.85,.5,1.41,.78,2.26,.12,.36,.34,1.16,.56,1.5,.22-.33,.56-1.19,.68-1.59,.34-.9,.6-1.47,.94-2.32,.17-.35,.4-.91,.64-1.16,.26-.29,.97-.48,1.23-.05,.12,.18,.26,.95,.27,1.22,.13,1.46,.26,2.45,.34,3.97,.05,.76,.09,1.62,.16,2.4,.05,.51,.21,1.11,0,1.6-.12,.3-.92,.33-1.2,.14-.22-.17-.34-.78-.38-1.75-.03-.48-.05-.96-.08-1.41-.04-.99-.03-2.36-.12-3.06-.18,.3-.49,.99-.68,1.37Z"/><path class="cls-2" d="M21.33,61.62c-.06-.52,.43-.77,.85-.95,.82-.42,1.46-.69,2.28-.51,.47,.17,.91,.8,1.02,1.47,.14,.83-.05,1.77-.16,2.44-.14,.76-.27,1.47-.48,2.18-.09,.26-.43,.73-.74,.77-.22,.04-.76-.05-.98-.14-.77-.3-1.36-.54-1.93-1.15-.24-.21-.5-.48-.54-.78-.14-.69,.2-1.15,.48-1.43,.18-.18,.64-.46,1-.57,.64-.2,1.76-.12,1.97-.38,.33-.44-.12-1.12-.42-1.16-.98,.16-1.53,.74-2.01,.7-.25-.09-.31-.25-.35-.48Zm.64,2.74c.01,.76,.98,1.03,1.6,1.12,.4-.1,.44-1.02,.44-1.47-.17-.14-.66-.08-.91-.07-.49,.03-.94,.16-1.13,.42Z"/><path class="cls-2" d="M28.06,61.86c.33,.1,.77-.31,1.09-.44,.35-.13,.89-.34,1.36-.27,.27,.03,.59,.19,.64,.44,.08,.52-.4,.82-.66,.89-.27,.07-.83,.21-1.06,.29-.53,.16-1.42,.76-1.42,.98-.04,.61-.03,2.08-.18,2.63-.13,.44-.38,.47-.87,.44-.2-.01-.47-.17-.53-.33-.05-.16,0-.46,.04-.73,.09-1.07,.13-2.83,.25-3.88,.12-.97,.09-1.43,.8-1.46,.2-.01,.4,.06,.52,.2,.14,.44,.06,.82,.04,1.25Z"/><path class="cls-2" d="M33.37,61.73c.04,.17-.08,.5-.16,.83-.14,.74-.27,1.49-.31,2.32-.03,.47,.01,1.2-.12,1.47-.18,.36-.99,.63-1.3,.3-.22-.22-.1-.74-.04-1.25,.1-.9,.22-1.84,.33-2.7,.09-.67,.29-1.38,.91-1.43,.18-.03,.63,.12,.69,.46Zm.26-2.06c.01,.8-1.38,1.02-1.46,.24-.04-.39,.27-.77,.63-.85,.46-.09,.82,.14,.83,.61Z"/><path class="cls-2" d="M36.91,65.59c.87,.18,1.24-.52,1.73-.22,.29,.3,.22,.7,0,.89-.66,.48-1.94,.65-2.61,.3-1.05-.43-1.39-.81-1.75-1.88-.25-1.12-.1-1.94,.31-2.51,.31-.59,.9-1.09,1.42-1.25,1.28-.44,2.35-.06,2.91,1.25,.09,.16,.27,.68,.27,.91,.03,.35-.22,.8-.57,.91-.59,.21-.89,.39-1.49,.56-.4,.12-.94,.27-1.25,.38,.1,.43,.44,.55,1.02,.66Zm-1.3-1.93c.24,.04,1.03-.22,1.49-.31,.3-.07,.68-.29,.74-.51-.34-.99-1.12-1.04-1.94-.38-.34,.27-.39,.96-.29,1.2Z"/><path class="cls-2" d="M49.66,62.3c-.26,.68-.42,1.02-.76,1.68-.26,.53-.44,1.38-1.04,1.38-.52-.05-.83-.85-1.03-1.46-.36-.69-.95-2.06-1.22-2.74-.04,.44-.08,1.67-.18,2.15-.1,.47-.18,.95-.27,1.45-.37,1.89-.27,2.4-1.23,2.31-.64-.05-.64-.69-.52-1.45,.29-1.73,.55-3.26,.83-5.04,.04-.76,.3-1.95,.63-2.42,.21-.23,.74-.33,1.08-.12,.21,.13,.44,.81,.57,1.13,.33,.85,.5,1.41,.78,2.26,.12,.36,.34,1.16,.56,1.5,.22-.33,.56-1.19,.68-1.59,.34-.9,.6-1.47,.94-2.32,.17-.35,.4-.91,.64-1.16,.26-.29,.97-.48,1.23-.05,.12,.18,.26,.95,.27,1.22,.13,1.46,.26,2.45,.34,3.97,.05,.76,.09,1.62,.16,2.4,.05,.51,.21,1.11,0,1.6-.12,.3-.92,.33-1.2,.14-.22-.17-.34-.78-.38-1.75-.03-.48-.05-.96-.08-1.41-.04-.99-.03-2.36-.12-3.06-.18,.3-.49,.99-.68,1.37Z"/><path class="cls-2" d="M53.55,61.62c-.06-.52,.43-.77,.85-.95,.82-.42,1.46-.69,2.28-.51,.47,.17,.91,.8,1.02,1.47,.14,.83-.05,1.77-.16,2.44-.14,.76-.27,1.47-.48,2.18-.09,.26-.43,.73-.74,.77-.22,.04-.76-.05-.98-.14-.77-.3-1.36-.54-1.93-1.15-.24-.21-.5-.48-.54-.78-.14-.69,.2-1.15,.48-1.43,.18-.18,.64-.46,1-.57,.64-.2,1.76-.12,1.97-.38,.33-.44-.12-1.12-.42-1.16-.98,.16-1.53,.74-2.01,.7-.25-.09-.31-.25-.35-.48Zm.64,2.74c.01,.76,.98,1.03,1.6,1.12,.4-.1,.44-1.02,.44-1.47-.17-.14-.66-.08-.91-.07-.49,.03-.94,.16-1.13,.42Z"/><path class="cls-2" d="M60.12,62.38c-.1,1.03-.56,3.22,.95,2.88,.52-.08,.87-1.28,.94-1.99,.05-.57-.04-1.63,.07-2.06,.1-.39,.74-.52,.98-.38,.38,.22,.4,1.32,.39,1.94-.01,.52-.09,1.11-.25,1.64-.42,1.47-1.16,2.4-3.08,2.09-.7-.17-1.34-.64-1.46-1.6-.05-.44-.04-1.34-.03-1.73,.05-1,.16-1.97,1.29-1.92,.35,.22,.25,.73,.19,1.13Z"/><path class="cls-2" d="M65.86,61.86c.33,.1,.77-.31,1.09-.44,.35-.13,.89-.34,1.36-.27,.27,.03,.59,.19,.64,.44,.08,.52-.4,.82-.66,.89-.27,.07-.83,.21-1.06,.29-.53,.16-1.42,.76-1.42,.98-.04,.61-.03,2.08-.18,2.63-.13,.44-.38,.47-.87,.44-.2-.01-.47-.17-.53-.33-.05-.16,0-.46,.04-.73,.09-1.07,.13-2.83,.25-3.88,.12-.97,.09-1.43,.8-1.46,.2-.01,.4,.06,.52,.2,.14,.44,.07,.82,.04,1.25Z"/><path class="cls-2" d="M74.7,63.1c.14,1.03-.46,2.03-1.32,2.66-.5,.33-1.09,.55-1.89,.46-.66-.07-1.42-.48-1.8-.87-.69-.95-.55-2.45,.03-3.3,.3-.47,.36-.61,.86-1,.31-.24,.52-.38,.94-.44,1.89-.34,3.13,.84,3.18,2.5Zm-2.48,1.81c.4-.12,.96-.61,1.08-1.2,.23-1.09-.55-2.07-1.46-1.9-.7,.13-1.33,1.34-1.2,2.16,.1,.64,.72,1.16,1.58,.94Z"/><path class="cls-2" d="M77.68,62.56c.29-.43,.65-.85,1.1-1.19,.34-.25,.85-.6,1.35-.26,.16,.09,.37,.57,.4,.99,.08,.9-.25,2.39-.26,3.34,0,.24,.05,.55,0,.69-.17,.44-1.06,.65-1.36,.18-.04-.64,.03-1.33,.12-1.97,.08-.63,.14-.99,.06-1.58-.4,.05-.66,.55-.92,.91-.65,.86-.56,.85-.95,1.5-.22,.39-.65,1.52-1,1.59-.94,.2-.78-.65-.69-1.47,.09-.91,.22-1.71,.26-2.63,.03-.74-.01-1.67,.59-1.79,1.04-.2,.59,1.43,.76,2.28,.23-.22,.4-.38,.55-.6Z"/></g><g><path class="cls-2" d="M17.81,54.63c-1.23,1.35-3.49,.44-3.65-.68-.12-.79,.59-2.34,.99-3.61,1.91-5.72,4.01-11.15,6.15-16.59,1.07-2.74,1.55-6.79,4.33-6.99,2.18-.2,2.06,1.39,2.3,3.81,.68,6.15,2.14,10.99,3.02,16.55,.28,1.79,.99,4.6,1.31,6.47-.08,1.23-1.83,1.98-2.78,1.94-2.38-.28-1.71-6.87-3.1-8.89-1.67,.24-4.25,.4-5.71,.99-.48,1.79-1.87,5.4-2.86,6.99Zm6.43-18.22c-.68,1.27-1.83,5-2.06,6.91,.91,.28,3.02-.12,3.53-.6,.04-1.59-.56-5.44-1.11-6.31h-.36Z"/><path class="cls-2" d="M38.89,52.45c-.16,.79-.16,1.55-.44,1.98-.52,.71-2.58,1.86-3.61,.79-.95-.99-.24-11.07-.16-12.9,.24-4.96,.2-5.28,.52-10.6,.16-2.46,.4-4.56,2.7-4.72,.87-.08,2.06,.32,3.29,.56,3.45,.68,6.71,1.75,8.85,3.65,1.11,.95,2.54,3.06,2.9,4.52,.48,1.91-.04,4.13-.87,5.48-.91,1.43-2.74,2.78-4.44,3.61-2.42,1.11-5.12,1.11-8.22,2.18-.32,1.55-.2,3.73-.52,5.44Zm1.15-20.48c-.24,1.47-.48,1.75-.56,4.68,.12,2.02-.48,4.05-.04,6.03,3.73-.08,8.89-1.35,9.05-4.64,.16-3.65-5.28-5.83-8.45-6.07Z"/><path class="cls-2" d="M59.76,49.87c1.91,.08,3.45-.08,5.08-.24,1.11-.12,3.81-.91,4.88-.56,.67,.2,1.35,1.47,.87,2.9-.63,1.98-2.94,2.02-5.04,2.06-2.42,0-4.8,.16-7.1,.32-2.9,.24-3.02-.79-3.1-3.65-.04-1.35,.16-3.85,.28-5.44,.12-2.54,.36-6.19,.64-10.4,.04-2.14,.04-4.48,.91-5.44,.99-1.11,3.73-1.27,6.31-1.27,3.14,.04,5.95,.12,6.19,1.71,.08,1.43-.08,2.42-1.63,2.5-.44,.04-.99,.04-1.67,.04-1.87,.04-4.33,.08-5.16,.64-.48,.32-.56,1.03-.63,1.94-.12,.99-.68,3.77,.12,4.56,.32,.28,.68,.36,1.15,.36,1.15,0,2.74-.6,3.89-.6,.75,0,1.39,.36,1.63,1.19,.28,1.59-.67,2.38-1.67,2.7-.44,.08-1.07,.16-1.75,.24-1.35,.16-3.1,.32-3.85,.87-.48,.52-.52,1.55-.52,2.66,0,.83,0,1.79,.08,2.46,0,.16,.04,.28,.04,.4l.04,.04Z"/></g></g></g></g></svg>